<svg xmlns="http://www.w3.org/2000/svg" xmlns:xlink="http://www.w3.org/1999/xlink" viewBox="0 0 3324.01 2117.41"><defs><style>.cls-1{fill:none;}.cls-2{fill:#fbe1e7;}.cls-3{fill:#fff;}.cls-4{fill:url(#Cat_Pattern);}</style><pattern id="Cat_Pattern" data-name="Cat Pattern" width="134" height="160" patternUnits="userSpaceOnUse" viewBox="0 0 134 160"><rect class="cls-1" width="134" height="160"/><path class="cls-2" d="M111.71,165.21a1.08,1.08,0,0,1-.55-.15l-5.85-3.56a1.06,1.06,0,1,1,1.1-1.81l5.85,3.55a1.07,1.07,0,0,1,.36,1.46A1.06,1.06,0,0,1,111.71,165.21Z"/><path class="cls-2" d="M152.18,168.63c0-2.44-.77-7.92-2.74-10.51-3.26-4.28-9.14-5.26-15.4-5.27H134c-6.26,0-12.14,1-15.4,5.27-2,2.59-2.74,8.07-2.74,10.51,0,6.49,8.11,11.75,18.14,11.78H134C144.07,180.38,152.18,175.12,152.18,168.63Z"/><path class="cls-2" d="M117.46,160a40,40,0,0,1,3.92-15.23c2.22-4.81,3.77-5.39,4.33-5.16s4.67,13.06,5.11,14.66a2.22,2.22,0,0,1-1.11,2.75C125.49,159.27,117.93,165.86,117.46,160Z"/><path class="cls-2" d="M18.18,168.63c0-2.44-.77-7.92-2.74-10.51-3.26-4.28-9.14-5.26-15.4-5.27H0c-6.26,0-12.14,1-15.4,5.27-2,2.59-2.74,8.07-2.74,10.51,0,6.49,8.11,11.75,18.14,11.78H0C10.07,180.38,18.18,175.12,18.18,168.63Z"/><path class="cls-2" d="M16.54,160a40,40,0,0,0-3.92-15.23c-2.22-4.81-3.77-5.39-4.33-5.16s-4.67,13.06-5.11,14.66A2.22,2.22,0,0,0,4.29,157C8.51,159.27,16.07,165.86,16.54,160Z"/><path class="cls-2" d="M22.29,165.21a1.06,1.06,0,0,1-.91-.51,1.07,1.07,0,0,1,.36-1.46l5.85-3.55a1.06,1.06,0,1,1,1.1,1.81l-5.85,3.56A1.08,1.08,0,0,1,22.29,165.21Z"/><path class="cls-2" d="M72.66,162.9c.88-2.65-.57-4.77-2.31-4.77S67,160.44,67,160.44s-1.52-2.31-3.35-2.31-3.19,2.12-2.31,4.77c.69,2.12,3.08,4.22,4,5l1.19.88a.75.75,0,0,0,.92,0l1.19-.88C69.58,167.12,72,165,72.66,162.9Z"/><path class="cls-2" d="M44.71,85.21a1.08,1.08,0,0,1-.55-.15L38.31,81.5a1.06,1.06,0,1,1,1.1-1.81l5.85,3.55a1.07,1.07,0,0,1,.36,1.46A1.06,1.06,0,0,1,44.71,85.21Z"/><path class="cls-2" d="M38.86,91.81a1.06,1.06,0,0,1-.37-2.06l5.85-2.15a1.07,1.07,0,0,1,1.37.63,1.06,1.06,0,0,1-.64,1.36l-5.85,2.15A.92.92,0,0,1,38.86,91.81Z"/><path class="cls-2" d="M41,97.81a1.07,1.07,0,0,1-.68-1.89l4.75-3.85a1.05,1.05,0,0,1,1.49.15,1.07,1.07,0,0,1-.15,1.5l-4.75,3.85A1,1,0,0,1,41,97.81Z"/><path class="cls-2" d="M85.18,88.63c0-2.44-.77-7.92-2.74-10.51-3.26-4.28-9.14-5.26-15.4-5.27H67c-6.26,0-12.14,1-15.4,5.27-2,2.59-2.74,8.07-2.74,10.51,0,6.49,8.11,11.75,18.14,11.78H67C77.07,100.38,85.18,95.12,85.18,88.63Z"/><path class="cls-2" d="M50.46,80a40,40,0,0,1,3.92-15.23c2.22-4.81,3.77-5.39,4.33-5.16s4.67,13.06,5.11,14.66A2.22,2.22,0,0,1,62.71,77C58.49,79.27,50.93,85.86,50.46,80Z"/><path class="cls-2" d="M83.54,80a40,40,0,0,0-3.92-15.23C77.4,60,75.85,59.4,75.29,59.63s-4.67,13.06-5.11,14.66A2.22,2.22,0,0,0,71.29,77C75.51,79.27,83.07,85.86,83.54,80Z"/><path class="cls-2" d="M89.29,85.21a1.06,1.06,0,0,1-.91-.51,1.07,1.07,0,0,1,.36-1.46l5.85-3.55a1.06,1.06,0,1,1,1.1,1.81l-5.85,3.56A1.08,1.08,0,0,1,89.29,85.21Z"/><path class="cls-2" d="M95.14,91.81a.92.92,0,0,1-.36-.07l-5.86-2.15a1.06,1.06,0,0,1-.63-1.36,1.07,1.07,0,0,1,1.37-.63l5.85,2.15a1.06,1.06,0,0,1-.37,2.06Z"/><path class="cls-2" d="M93,97.81a1.08,1.08,0,0,1-.67-.24l-4.74-3.85a1.07,1.07,0,0,1-.15-1.5,1.05,1.05,0,0,1,1.49-.15l4.74,3.85a1.05,1.05,0,0,1,.16,1.49A1.07,1.07,0,0,1,93,97.81Z"/><ellipse class="cls-3" cx="59.26" cy="83.52" rx="1.78" ry="2.11"/><ellipse class="cls-3" cx="74.74" cy="83.52" rx="1.78" ry="2.11"/><path class="cls-3" d="M70.87,88.68A2.51,2.51,0,0,1,70.81,90a1,1,0,0,1-.85.66,3.9,3.9,0,0,1-1.48-.08,1.12,1.12,0,0,1-.84-.67l0-.16a.76.76,0,0,0-.86-.66.78.78,0,0,0-.64.82,1.77,1.77,0,0,0,.09.53,3.52,3.52,0,0,0,.17.39,2.36,2.36,0,0,0,.49.62,2.9,2.9,0,0,0,1.15.62,4.74,4.74,0,0,0,1.08.17h.5l.57-.05a2.55,2.55,0,0,0,2-1.56,3.93,3.93,0,0,0,.14-2.29.73.73,0,0,0-.85-.59.74.74,0,0,0-.58.88Z"/><path class="cls-3" d="M63.06,88.68a2.62,2.62,0,0,0,0,1.34,1,1,0,0,0,.81.66,3.54,3.54,0,0,0,1.41-.08,1,1,0,0,0,.79-.67l0-.16a.73.73,0,0,1,.82-.66.78.78,0,0,1,.61.82,2.16,2.16,0,0,1-.09.53,3.52,3.52,0,0,1-.16.39,2.3,2.3,0,0,1-.47.62,2.7,2.7,0,0,1-1.09.62,4.34,4.34,0,0,1-1,.17h-.48l-.54-.05a2.46,2.46,0,0,1-1.88-1.56,4.19,4.19,0,0,1-.14-2.29.71.71,0,0,1,.82-.59.74.74,0,0,1,.54.88Z"/><path class="cls-2" d="M139.66,82.9c.88-2.65-.57-4.77-2.31-4.77S134,80.44,134,80.44s-1.52-2.31-3.35-2.31-3.19,2.12-2.31,4.77c.69,2.12,3.08,4.22,4,5l1.19.88a.75.75,0,0,0,.92,0l1.19-.88C136.58,87.12,139,85,139.66,82.9Z"/><path class="cls-2" d="M5.66,82.9c.88-2.65-.57-4.77-2.31-4.77S0,80.44,0,80.44s-1.52-2.31-3.35-2.31-3.19,2.12-2.31,4.77c.69,2.12,3.08,4.22,4,5l1.19.88a.75.75,0,0,0,.92,0l1.19-.88C2.58,87.12,5,85,5.66,82.9Z"/><path class="cls-2" d="M111.71,5.21a1.08,1.08,0,0,1-.55-.15L105.31,1.5a1.06,1.06,0,1,1,1.1-1.81l5.85,3.55a1.07,1.07,0,0,1,.36,1.46A1.06,1.06,0,0,1,111.71,5.21Z"/><path class="cls-2" d="M105.86,11.81a1.06,1.06,0,0,1-.37-2.06l5.85-2.15a1.07,1.07,0,0,1,1.37.63,1.06,1.06,0,0,1-.64,1.36l-5.85,2.15A.92.92,0,0,1,105.86,11.81Z"/><path class="cls-2" d="M108,17.81a1.07,1.07,0,0,1-.68-1.89l4.75-3.85a1.05,1.05,0,0,1,1.49.15,1.07,1.07,0,0,1-.15,1.5l-4.75,3.85A1,1,0,0,1,108,17.81Z"/><path class="cls-2" d="M152.18,8.63c0-2.44-.77-7.92-2.74-10.51-3.26-4.28-9.14-5.26-15.4-5.27H134c-6.26,0-12.14,1-15.4,5.27-2,2.59-2.74,8.07-2.74,10.51,0,6.49,8.11,11.75,18.14,11.78H134C144.07,20.38,152.18,15.12,152.18,8.63Z"/><path class="cls-2" d="M117.46,0a40,40,0,0,1,3.92-15.23c2.22-4.81,3.77-5.39,4.33-5.16s4.67,13.06,5.11,14.66A2.22,2.22,0,0,1,129.71-3C125.49-.73,117.93,5.86,117.46,0Z"/><ellipse class="cls-3" cx="126.26" cy="3.52" rx="1.78" ry="2.11"/><path class="cls-3" d="M137.87,8.68a2.51,2.51,0,0,1-.06,1.34,1,1,0,0,1-.85.66,3.9,3.9,0,0,1-1.48-.08,1.12,1.12,0,0,1-.84-.67l0-.16a.76.76,0,0,0-.86-.66.78.78,0,0,0-.64.82,1.77,1.77,0,0,0,.09.53,3.52,3.52,0,0,0,.17.39,2.36,2.36,0,0,0,.49.62,2.9,2.9,0,0,0,1.15.62,4.74,4.74,0,0,0,1.08.17h.5l.57,0a2.55,2.55,0,0,0,2-1.56,3.93,3.93,0,0,0,.14-2.29.73.73,0,0,0-.85-.59.74.74,0,0,0-.58.88Z"/><path class="cls-3" d="M130.06,8.68a2.62,2.62,0,0,0,.05,1.34,1,1,0,0,0,.81.66,3.54,3.54,0,0,0,1.41-.08,1,1,0,0,0,.79-.67l0-.16a.73.73,0,0,1,.82-.66.78.78,0,0,1,.61.82,2.16,2.16,0,0,1-.09.53,3.52,3.52,0,0,1-.16.39,2.3,2.3,0,0,1-.47.62,2.7,2.7,0,0,1-1.09.62,4.34,4.34,0,0,1-1,.17h-.48l-.54,0a2.46,2.46,0,0,1-1.88-1.56,4.19,4.19,0,0,1-.14-2.29.71.71,0,0,1,.82-.59.74.74,0,0,1,.54.88Z"/><path class="cls-2" d="M18.18,8.63c0-2.44-.77-7.92-2.74-10.51C12.18-6.16,6.3-7.14,0-7.15H0c-6.26,0-12.14,1-15.4,5.27-2,2.59-2.74,8.07-2.74,10.51,0,6.49,8.11,11.75,18.14,11.78H0C10.07,20.38,18.18,15.12,18.18,8.63Z"/><path class="cls-2" d="M16.54,0a40,40,0,0,0-3.92-15.23C10.4-20,8.85-20.6,8.29-20.37S3.62-7.31,3.18-5.71A2.22,2.22,0,0,0,4.29-3C8.51-.73,16.07,5.86,16.54,0Z"/><path class="cls-2" d="M22.29,5.21a1.06,1.06,0,0,1-.91-.51,1.07,1.07,0,0,1,.36-1.46L27.59-.31a1.06,1.06,0,1,1,1.1,1.81L22.84,5.06A1.08,1.08,0,0,1,22.29,5.21Z"/><path class="cls-2" d="M28.14,11.81a.92.92,0,0,1-.36-.07L21.92,9.59a1.06,1.06,0,0,1-.63-1.36,1.07,1.07,0,0,1,1.37-.63l5.85,2.15a1.06,1.06,0,0,1-.37,2.06Z"/><path class="cls-2" d="M26,17.81a1.08,1.08,0,0,1-.67-.24l-4.74-3.85a1.07,1.07,0,0,1-.15-1.5,1.05,1.05,0,0,1,1.49-.15l4.74,3.85a1.05,1.05,0,0,1,.16,1.49A1.07,1.07,0,0,1,26,17.81Z"/><ellipse class="cls-3" cx="7.74" cy="3.52" rx="1.78" ry="2.11"/><path class="cls-3" d="M3.87,8.68A2.51,2.51,0,0,1,3.81,10a1,1,0,0,1-.85.66,3.9,3.9,0,0,1-1.48-.08,1.12,1.12,0,0,1-.84-.67l0-.16a.76.76,0,0,0-.86-.66.78.78,0,0,0-.64.82,1.77,1.77,0,0,0,.09.53,3.52,3.52,0,0,0,.17.39,2.36,2.36,0,0,0,.49.62A2.9,2.9,0,0,0,1,12.09a4.74,4.74,0,0,0,1.08.17h.5l.57,0a2.55,2.55,0,0,0,2-1.56,3.93,3.93,0,0,0,.14-2.29.73.73,0,0,0-.85-.59.74.74,0,0,0-.58.88Z"/><path class="cls-3" d="M-3.94,8.68a2.62,2.62,0,0,0,0,1.34,1,1,0,0,0,.81.66,3.54,3.54,0,0,0,1.41-.08,1,1,0,0,0,.79-.67l0-.16A.73.73,0,0,1,0,9.11a.78.78,0,0,1,.61.82,2.16,2.16,0,0,1-.09.53,3.52,3.52,0,0,1-.16.39,2.3,2.3,0,0,1-.47.62,2.7,2.7,0,0,1-1.09.62,4.34,4.34,0,0,1-1,.17h-.48l-.54,0a2.46,2.46,0,0,1-1.88-1.56A4.19,4.19,0,0,1-5.3,8.36a.71.71,0,0,1,.82-.59.74.74,0,0,1,.54.88Z"/><path class="cls-2" d="M72.66,2.9c.88-2.65-.57-4.77-2.31-4.77S67,.44,67,.44s-1.52-2.31-3.35-2.31S60.46.25,61.34,2.9c.69,2.12,3.08,4.22,4,5l1.19.88a.75.75,0,0,0,.92,0l1.19-.88C69.58,7.12,72,5,72.66,2.9Z"/></pattern></defs><g id="Lag_2" data-name="Lag 2"><g id="Layer_1" data-name="Layer 1"><rect class="cls-4" width="3324.01" height="2117.41"/></g></g></svg>